<?xml version="1.0" encoding="utf-8"?>
<!-- Generator: Adobe Illustrator 16.0.0, SVG Export Plug-In . SVG Version: 6.00 Build 0)  -->
<!DOCTYPE svg PUBLIC "-//W3C//DTD SVG 1.1//EN" "http://www.w3.org/Graphics/SVG/1.1/DTD/svg11.dtd">
<svg version="1.1" id="Layer_1" xmlns="http://www.w3.org/2000/svg" xmlns:xlink="http://www.w3.org/1999/xlink" x="0px" y="0px"
	 width="56.421px" height="33.333px" viewBox="10.833 8.5 56.421 33.333" enable-background="new 10.833 8.5 56.421 33.333"
	 xml:space="preserve">
<g>
	<g>
		<g>
			<path id="SVGID_1_" fill="#FFFFFF" d="M41.604,13.589c-0.249,0.282-2.768,3.233-3.078,3.596L24.309,34.448
				c-0.703,0.848-1.696,1.375-2.795,1.478c-1.096,0.103-2.17-0.229-3.019-0.933c-0.853-0.703-1.376-1.696-1.479-2.793
				c-0.103-1.1,0.228-2.171,0.932-3.021l10.458-12.63c1.457-1.753,4.065-2,5.818-0.546c0.873,0.722,2.166,0.6,2.89-0.272
				c0.724-0.874,0.6-2.168-0.273-2.89c-3.496-2.895-8.695-2.405-11.591,1.09L14.79,26.562c-1.403,1.693-2.065,3.833-1.858,6.021
				c0.206,2.19,1.251,4.17,2.943,5.571c1.493,1.235,3.327,1.896,5.238,1.896c0.261,0,0.522-0.013,0.786-0.038
				c2.189-0.206,4.167-1.251,5.574-2.948l14.196-17.237c1.121-1.311,2.846-3.33,3.021-3.527c0.978-1.116,2.178-1.334,3.019-1.323
				c1.199,0.017,2.361,0.529,3.03,1.334l10.46,12.628c1.451,1.755,1.207,4.365-0.543,5.817c-0.852,0.703-1.923,1.036-3.022,0.932
				c-1.1-0.104-2.09-0.628-2.797-1.478l-6.313-7.622l-2.747-3.535c-0.695-0.894-1.983-1.057-2.88-0.36
				c-0.894,0.697-1.054,1.983-0.362,2.879l2.768,3.559l6.375,7.695c1.401,1.695,3.379,2.74,5.568,2.947
				c2.188,0.206,4.328-0.453,6.024-1.856c3.495-2.897,3.985-8.098,1.09-11.595l-10.463-12.63c-1.434-1.73-3.726-2.786-6.129-2.817
				c-0.057-0.002-0.114-0.002-0.169-0.002C45.257,10.869,43.135,11.844,41.604,13.589"/>
		</g>
		<g>
			<defs>
				<path id="SVGID_2_" d="M41.604,13.589c-0.249,0.282-2.768,3.233-3.078,3.596L24.309,34.448
					c-0.703,0.848-1.696,1.375-2.795,1.478c-1.096,0.103-2.17-0.229-3.019-0.933c-0.853-0.703-1.376-1.696-1.479-2.793
					c-0.103-1.1,0.228-2.171,0.932-3.021l10.458-12.63c1.457-1.753,4.065-2,5.818-0.546c0.873,0.722,2.166,0.6,2.89-0.272
					c0.724-0.874,0.6-2.168-0.273-2.89c-3.496-2.895-8.695-2.405-11.591,1.09L14.79,26.562c-1.403,1.693-2.065,3.833-1.858,6.021
					c0.206,2.19,1.251,4.17,2.943,5.571c1.493,1.235,3.327,1.896,5.238,1.896c0.261,0,0.522-0.013,0.786-0.038
					c2.189-0.206,4.167-1.251,5.574-2.948l14.196-17.237c1.121-1.311,2.846-3.33,3.021-3.527c0.978-1.116,2.178-1.334,3.019-1.323
					c1.199,0.017,2.361,0.529,3.03,1.334l10.46,12.628c1.451,1.755,1.207,4.365-0.543,5.817c-0.852,0.703-1.923,1.036-3.022,0.932
					c-1.1-0.104-2.09-0.628-2.797-1.478l-6.313-7.622l-2.747-3.535c-0.695-0.894-1.983-1.057-2.88-0.36
					c-0.894,0.697-1.054,1.983-0.362,2.879l2.768,3.559l6.375,7.695c1.401,1.695,3.379,2.74,5.568,2.947
					c2.188,0.206,4.328-0.453,6.024-1.856c3.495-2.897,3.985-8.098,1.09-11.595l-10.463-12.63c-1.434-1.73-3.726-2.786-6.129-2.817
					c-0.057-0.002-0.114-0.002-0.169-0.002C45.257,10.869,43.135,11.844,41.604,13.589"/>
			</defs>
			<clipPath id="SVGID_3_">
				<use xlink:href="#SVGID_2_"  overflow="visible"/>
			</clipPath>
			<rect x="12.724" y="9.945" clip-path="url(#SVGID_3_)" fill="#FFFFFF" width="54.531" height="30.103"/>
		</g>
	</g>
</g>
</svg>
